<svg width="34" height="28" viewBox="0 0 34 28" fill="none" xmlns="http://www.w3.org/2000/svg">
<g clip-path="url(#clip0)">
<path d="M23.6833 8.63298C23.4452 8.81492 23.3996 9.15542 23.5815 9.3935C24.5998 10.7262 25.1379 12.3192 25.1379 14C25.1379 18.1883 21.7305 21.5957 17.5422 21.5957C13.3539 21.5957 9.94643 18.1883 9.94643 14C9.94643 9.8117 13.3539 6.40424 17.5422 6.40424C19.223 6.40424 20.8159 6.94239 22.1487 7.96072C22.3867 8.14266 22.7273 8.09708 22.9093 7.85894C23.0912 7.62087 23.0456 7.28036 22.8075 7.09842C21.2839 5.93439 19.4632 5.31914 17.5422 5.31914C12.7556 5.31914 8.86133 9.21337 8.86133 14C8.86133 18.7866 12.7556 22.6808 17.5422 22.6808C22.3288 22.6808 26.223 18.7866 26.223 14C26.223 12.079 25.6078 10.2583 24.4437 8.73476C24.2619 8.49669 23.9214 8.45105 23.6833 8.63298Z" fill="#777777"/>
<path d="M17.5422 2.42552C11.1601 2.42552 5.96777 7.61776 5.96777 14C5.96777 20.3822 11.1601 25.5745 17.5422 25.5745C23.9245 25.5745 29.1167 20.3822 29.1167 14C29.1167 7.61776 23.9245 2.42552 17.5422 2.42552ZM17.5422 24.4894C11.7584 24.4894 7.05288 19.7838 7.05288 14C7.05288 8.21616 11.7584 3.51063 17.5422 3.51063C23.3261 3.51063 28.0316 8.21616 28.0316 14C28.0316 19.7838 23.3261 24.4894 17.5422 24.4894Z" fill="#777777"/>
<path d="M4.88298 2.42552C4.58334 2.42552 4.34043 2.66837 4.34043 2.96808V7.48935H3.25532V2.96808C3.25532 2.66837 3.0124 2.42552 2.71277 2.42552C2.41313 2.42552 2.17021 2.66837 2.17021 2.96808V7.48935H1.08511V2.96808C1.08511 2.66837 0.842187 2.42552 0.542553 2.42552C0.242919 2.42552 0 2.66837 0 2.96808V9.47871C0 10.7888 0.933481 11.8848 2.17021 12.1369V25.0319C2.17021 25.3316 2.41313 25.5745 2.71277 25.5745C3.0124 25.5745 3.25532 25.3316 3.25532 25.0319V12.1369C4.49205 11.8848 5.42553 10.7888 5.42553 9.47871V2.96808C5.42553 2.66837 5.18261 2.42552 4.88298 2.42552ZM2.71277 11.1064C1.81524 11.1064 1.08511 10.3762 1.08511 9.47871V8.57446H4.34043V9.47871C4.34043 10.3762 3.61029 11.1064 2.71277 11.1064Z" fill="#777777"/>
<path d="M33.4579 2.42552C31.962 2.42552 30.7451 3.64243 30.7451 5.13829V15.0851C30.7451 15.3848 30.988 15.6277 31.2877 15.6277H32.9153V25.0319C32.9153 25.3316 33.1582 25.5745 33.4579 25.5745C33.7576 25.5745 34.0004 25.3316 34.0004 25.0319V2.96808C34.0004 2.66837 33.7576 2.42552 33.4579 2.42552ZM32.9153 14.5425H31.8302V5.13829C31.8302 4.43094 32.2838 3.82755 32.9153 3.60359V14.5425Z" fill="#777777"/>
</g>
<defs>
<clipPath id="clip0">
<rect width="34" height="28" fill="white"/>
</clipPath>
</defs>
</svg>
