<svg width="67" height="71" viewBox="0 0 67 71" fill="none" xmlns="http://www.w3.org/2000/svg">
<path d="M26.1112 46.8891C29.543 46.1756 31.5476 42.8798 31.5476 42.8798L32.0748 63.0285C32.0748 63.0285 30.1241 62.8548 28.5576 61.9752C27.4422 61.3489 26.3047 60.0399 25.3297 59.291C22.9852 57.4901 19.3157 56.3689 18.1604 55.8932C17.0051 55.4175 14.253 53.0391 14.253 53.0391C14.253 53.0391 10.6174 49.7772 9.83591 46.1756C9.05443 42.574 9.0884 39.9237 9.36022 38.9384C9.63204 37.953 11.3989 32.5166 12.9618 27.6578C14.5248 22.799 13.6754 21.6778 13.6754 21.6778C13.6754 21.6778 12.8939 17.6344 8.95249 15.324C5.01109 13.0135 0.695936 11.9602 0.695936 11.9602C0.695936 11.9602 -0.221474 10.3293 0.0503469 8.73232C0.322167 7.13537 1.57934 6.69366 1.57934 6.69366C1.57934 6.69366 9.63202 7.71299 14.4229 11.9602C19.2137 16.2074 19.1797 22.2554 19.2137 22.6291C19.2477 23.0029 19.6868 23.8184 22.5095 23.9203C25.3323 24.0222 25.9752 22.6291 25.9752 22.6291L22.7134 29.6965C22.7134 29.6965 22.1018 29.0509 21.2863 28.881C20.4709 28.7111 19.2817 28.949 19.2817 28.949C19.2817 28.949 16.4955 29.6965 16.3936 36.6959C16.2916 43.6953 19.3157 44.8505 19.3157 44.8505C19.3157 44.8505 22.6795 47.6027 26.1112 46.8891Z" fill="url(#paint0_linear)"/>
<path d="M62.9944 50.5247C63.3682 52.2236 63.4701 53.6167 63.2663 55.2476C63.0624 56.8785 62.077 58.9512 60.9558 60.5821C59.8345 62.213 57.1163 63.0285 57.1163 63.0285H44.001V0.37384H52.9711C52.9711 0.37384 53.6149 0.514097 54.0244 1.32521C54.322 1.91492 54.4321 2.41249 54.4321 3.53375C54.4321 4.65501 52.5293 6.38787 52.5293 6.38787C52.5293 6.38787 51.1363 7.74697 50.6606 8.69835C50.1849 9.64972 50.8984 10.4652 50.8984 10.4652C50.8984 10.4652 51.6216 11.0838 53.107 12.198C54.581 13.3038 56.5421 14.5624 57.4221 15.324C59.189 16.853 62.111 19.877 62.8925 21.2701C63.674 22.6631 65.5169 25.7923 66.2563 28.0656C66.7452 29.5687 66.8332 31.0711 66.698 31.4633C66.3582 32.4487 65.6447 33.1962 65.2709 33.434C64.8972 33.6719 62.6207 34.6912 60.9558 35.7445C59.2909 36.7978 58.0677 39.1423 58.0677 39.1423C58.0677 39.1423 57.1163 41.6226 58.0677 43.3895C59.0191 45.1563 60.5141 46.0737 61.1597 46.7532C61.8052 47.4328 62.6207 48.8259 62.9944 50.5247Z" fill="#A97456"/>
<path d="M26.1872 50.5247C25.8134 52.2236 25.7115 53.6167 25.9154 55.2476C26.1192 56.8785 27.1046 58.9512 28.2259 60.5821C29.3471 62.213 32.0653 63.0285 32.0653 63.0285H45.1807V0.37384H36.2106C36.2106 0.37384 35.5667 0.514097 35.1573 1.32521C34.8596 1.91492 34.7495 2.41249 34.7495 3.53375C34.7495 4.65501 36.6523 6.38787 36.6523 6.38787C36.6523 6.38787 38.0454 7.74697 38.5211 8.69835C38.9967 9.64972 38.2832 10.4652 38.2832 10.4652C38.2832 10.4652 37.56 11.0838 36.0747 12.198C34.6006 13.3038 32.6396 14.5624 31.7595 15.324C29.9927 16.853 27.0706 19.877 26.2891 21.2701C25.5076 22.6631 23.6647 25.7923 22.9254 28.0656C22.4364 29.5687 22.3484 31.0711 22.4836 31.4633C22.8234 32.4487 23.5369 33.1962 23.9107 33.434C24.2845 33.6719 26.561 34.6912 28.2259 35.7445C29.8908 36.7978 31.1139 39.1423 31.1139 39.1423C31.1139 39.1423 32.0653 41.6226 31.1139 43.3895C30.1626 45.1563 28.6676 46.0737 28.022 46.7532C27.3764 47.4328 26.561 48.8259 26.1872 50.5247Z" fill="#A97456"/>
<rect x="34" y="0.000305176" width="21" height="6" rx="3" fill="url(#paint1_linear)"/>
<rect x="26.7734" y="60.684" width="36.8317" height="4.41708" rx="2.20854" fill="url(#paint2_linear)"/>
<rect x="39.5498" y="69.9938" width="0.0679552" height="0.0679552" fill="#C4C4C4"/>
<path d="M44.6593 26.572L38.4956 37.0817C37.2004 39.3036 37.1003 42.1288 38.4956 44.5079C40.5931 48.0843 45.2588 49.3211 48.9168 47.2704C52.5748 45.2197 53.8399 40.6581 51.7424 37.0817L45.5786 26.572C45.375 26.2249 44.8629 26.2249 44.6593 26.572Z" fill="url(#paint3_linear)"/>
<defs>
<linearGradient id="paint0_linear" x1="0.293386" y1="9.39797" x2="46.0849" y2="54.3336" gradientUnits="userSpaceOnUse">
<stop stop-color="#CF9D80"/>
<stop offset="1" stop-color="#CF9D80" stop-opacity="0.8"/>
</linearGradient>
<linearGradient id="paint1_linear" x1="34.1921" y1="0.28833" x2="35.7661" y2="9.78329" gradientUnits="userSpaceOnUse">
<stop stop-color="#CF9D80"/>
<stop offset="1" stop-color="#CF9D80" stop-opacity="0.8"/>
</linearGradient>
<linearGradient id="paint2_linear" x1="27.1103" y1="60.8961" x2="27.6077" y2="68.0435" gradientUnits="userSpaceOnUse">
<stop stop-color="#CF9D80"/>
<stop offset="1" stop-color="#CF9D80"/>
</linearGradient>
<linearGradient id="paint3_linear" x1="37.626" y1="27.3653" x2="55.1805" y2="48.4128" gradientUnits="userSpaceOnUse">
<stop stop-color="#CF9D80"/>
<stop offset="1" stop-color="#CF9D80" stop-opacity="0.8"/>
</linearGradient>
</defs>
</svg>
